# xmcd
#
# Track frame offsets: 
#        150
#        7432
#        17920
#        31012
#        40772
#        48905
#        66920
#        76790
#        91287
#        103777
#        109820
#        122022
#        129910
#        144307
#        153590
#        162615
#        172440
#        184675
#        196377
#        205747
#        218392
#        230455
#        241542
#        249585
#
# Disc length: 3455 seconds
#
# Revision: 0
# Processed by: cddbd v1.4PL0 Copyright (c) Steve Scherf et al.
# Submitted via: ExactAudioCopy v0.90b4
#
DISCID=430d7d18
DTITLE=Country Gazette - A Traitor In Our Midst and Don't Give Up Your D
DTITLE=ay Job
DYEAR=1995
DGENRE=Newgrass
TTITLE0=Lost Indian
TTITLE1=Keep On Pushin'
TTITLE2=I Wish You Knew
TTITLE3=Hot Burrito Breakdown
TTITLE4=I Might Take You Back Again
TTITLE5=Forget Me Not
TTITLE6=Tried So Hard
TTITLE7=Anna
TTITLE8=If You're Ever Gonna Love Me
TTITLE9=Aggravation
TTITLE10=Sound Of Goodbye
TTITLE11=Swing, Low Sweet Chariot
TTITLE12=Huckleberry Hornpipe
TTITLE13=The Fallen Eagle
TTITLE14=I Don't Believe You Met My Baby
TTITLE15=Deputy Dalton
TTITLE16=Teach Your Children
TTITLE17=My Oklahoma
TTITLE18=Down The Road
TTITLE19=Winterwood
TTITLE20=Honky Cat
TTITLE21=Snowball
TTITLE22=Lonesome Blues
TTITLE23=Singing All Day (And Dinner On The Ground)
EXTD=
EXTT0=
EXTT1=
EXTT2=
EXTT3=
EXTT4=
EXTT5=
EXTT6=
EXTT7=
EXTT8=
EXTT9=
EXTT10=
EXTT11=
EXTT12=
EXTT13=
EXTT14=
EXTT15=
EXTT16=
EXTT17=
EXTT18=
EXTT19=
EXTT20=
EXTT21=
EXTT22=
EXTT23=
PLAYORDER=
